# xmcd
#
# Track frame offsets:
#	150
#	13946
#	27361
#	41287
#	55655
#	67785
#	80466
#	92568
#	104071
#	116382
#	131246
#	144301
#	157704
#	171553
#	184939
#	197094
#	210886
#	224852
#	235853
#	248957
#	260457
#	274765
#
# Disc length: 3835 seconds
#
# Revision: 1
# Processed by: cddbd v1.5.2PL0 Copyright (c) Steve Scherf et al.
# Submitted via: EZCDAudioConverter 6.0.9.1
#
DISCID=390ef916
DTITLE=John Lee Hooker - Singles - Volume One - CD2
DYEAR=2017
DGENRE=Blues
TTITLE0=Turn Over A New Leaf
TTITLE1=Ground Hog Blues
TTITLE2=Louise
TTITLE3=Cold Chills All Over Me
TTITLE4=Rock Me Mama
TTITLE5=It Hurts Me So
TTITLE6=I Got Eyes For You
TTITLE7=Key To The Highway
TTITLE8=Bluebird Blues
TTITLE9=It's Been A Long Time Baby
TTITLE10=Rock House Boogie
TTITLE11=Ride 'til I Die
TTITLE12=It's Stormin' And Rainin'
TTITLE13=Please Take Me Back
TTITLE14=Love Money Can't Buy
TTITLE15=Too Much Boogie
TTITLE16=Need Somebody
TTITLE17=Gotta Boogie
TTITLE18=Down Child
TTITLE19=Jump Me
TTITLE20=I Wonder Little Darling
TTITLE21=I Tried Hard
EXTD=
EXTT0=
EXTT1=
EXTT2=
EXTT3=
EXTT4=
EXTT5=
EXTT6=
EXTT7=
EXTT8=
EXTT9=
EXTT10=
EXTT11=
EXTT12=
EXTT13=
EXTT14=
EXTT15=
EXTT16=
EXTT17=
EXTT18=
EXTT19=
EXTT20=
EXTT21=
PLAYORDER=
